<svg width="25" height="24" viewBox="0 0 25 24" fill="none" xmlns="http://www.w3.org/2000/svg">
<g clip-path="url(#clip0_248_479)">
<path fill-rule="evenodd" clip-rule="evenodd" d="M24.395 12.2729C24.395 11.422 24.3186 10.6038 24.1768 9.81836H12.875V14.4602H19.3332C19.055 15.9602 18.2095 17.2311 16.9386 18.082V21.0929H20.8168C23.0859 19.0038 24.395 15.9275 24.395 12.2729Z" fill="#4285F4"/>
<path fill-rule="evenodd" clip-rule="evenodd" d="M12.875 24.0003C16.115 24.0003 18.8314 22.9257 20.8168 21.093L16.9386 18.0821C15.8641 18.8021 14.4896 19.2275 12.875 19.2275C9.74955 19.2275 7.1041 17.1166 6.16046 14.2803H2.15137V17.3894C4.12591 21.3112 8.1841 24.0003 12.875 24.0003Z" fill="#34A853"/>
<path fill-rule="evenodd" clip-rule="evenodd" d="M6.16046 14.2804C5.92046 13.5604 5.78409 12.7913 5.78409 12.0004C5.78409 11.2095 5.92046 10.4404 6.16046 9.72042V6.61133H2.15136C1.33864 8.23133 0.875 10.0641 0.875 12.0004C0.875 13.9368 1.33864 15.7695 2.15136 17.3895L6.16046 14.2804Z" fill="#FBBC05"/>
<path fill-rule="evenodd" clip-rule="evenodd" d="M12.875 4.77273C14.6368 4.77273 16.2186 5.37818 17.4623 6.56728L20.9041 3.12546C18.8259 1.18909 16.1096 0 12.875 0C8.1841 0 4.12591 2.68909 2.15137 6.61091L6.16046 9.72001C7.1041 6.88364 9.74955 4.77273 12.875 4.77273Z" fill="#EA4335"/>
</g>
<defs>
<clipPath id="clip0_248_479">
<rect width="24" height="24" fill="white" transform="translate(0.5)"/>
</clipPath>
</defs>
</svg>
