<svg width="239" height="55" viewBox="0 0 239 55" fill="none" xmlns="http://www.w3.org/2000/svg">
<path d="M13.3145 33.6689C13.3145 32.6728 14.122 31.8652 15.1181 31.8652L21.3317 31.8652C22.3278 31.8652 23.1353 32.6728 23.1353 33.6689L23.1353 45.5053L18.7705 45.5053C15.7572 45.5053 13.3145 43.0626 13.3145 40.0493L13.3145 33.6689Z" fill="#6EBBF7"/>
<path d="M23.1348 24.9384C23.1348 23.9423 23.9423 23.1348 24.9384 23.1348L31.152 23.1348C32.1481 23.1348 32.9556 23.9423 32.9556 24.9384L32.9556 45.5045L23.1348 45.5045L23.1348 24.9384Z" fill="#2196F3"/>
<path d="M32.9561 15.663C32.9561 14.6669 33.7636 13.8594 34.7597 13.8594L40.9733 13.8594C41.9694 13.8594 42.7769 14.6669 42.7769 15.663L42.7769 40.0483C42.7769 43.0616 40.3342 45.5044 37.3209 45.5044L32.9561 45.5044L32.9561 15.663Z" fill="#0C7FDA"/>
<path d="M48.1352 34.6047C46.8249 38.4102 44.4876 41.7793 41.382 44.3395C38.2763 46.8996 34.5231 48.551 30.5375 49.1112C26.5518 49.6713 22.4888 49.1184 18.7978 47.5135C15.1067 45.9085 11.9314 43.3142 9.62284 40.0172C7.31428 36.7203 5.96241 32.8491 5.7167 28.8318C5.47099 24.8144 6.34101 20.8074 8.23056 17.2536C10.1201 13.6999 12.9556 10.7379 16.4235 8.69512C19.8915 6.65235 23.8568 5.60838 27.881 5.67862L27.8048 10.0428C24.5854 9.98659 21.4132 10.8218 18.6389 12.456C15.8645 14.0902 13.5961 16.4598 12.0845 19.3028C10.5728 22.1458 9.87682 25.3514 10.0734 28.5653C10.27 31.7792 11.3514 34.8761 13.1983 37.5137C15.0451 40.1512 17.5854 42.2267 20.5382 43.5106C23.4911 44.7946 26.7414 45.2369 29.93 44.7888C33.1185 44.3407 36.1211 43.0195 38.6056 40.9714C41.0901 38.9233 42.9599 36.2281 44.0082 33.1836L48.1352 34.6047Z" fill="#2196F3"/>
<path d="M48.4283 26.2417L50.7862 35.866L40.6449 32.3741L48.4283 26.2417Z" fill="#2196F3"/>
<path d="M68.464 34.5V16.8H72.136V34.5H68.464ZM84.0374 34.5V29.088C84.0374 28.784 84.0374 28.508 84.0374 28.26C84.0374 28.012 84.0374 27.788 84.0374 27.588C84.0374 27.06 83.9694 26.58 83.8334 26.148C83.6974 25.708 83.4534 25.356 83.1014 25.092C82.7494 24.828 82.2414 24.696 81.5774 24.696C81.0014 24.696 80.5014 24.828 80.0774 25.092C79.6614 25.356 79.3414 25.724 79.1174 26.196C78.8934 26.668 78.7814 27.212 78.7814 27.828L77.7494 27.084C77.7494 25.98 77.9894 25.012 78.4694 24.18C78.9494 23.348 79.5974 22.696 80.4134 22.224C81.2374 21.752 82.1494 21.516 83.1494 21.516C84.1974 21.516 85.0574 21.728 85.7294 22.152C86.4094 22.568 86.9134 23.152 87.2414 23.904C87.5774 24.648 87.7454 25.52 87.7454 26.52C87.7454 26.928 87.7454 27.384 87.7454 27.888C87.7454 28.392 87.7454 28.908 87.7454 29.436V34.5H84.0374ZM75.0614 34.5V21.756H78.7814V34.5H75.0614ZM101.55 21.756L97.6864 34.5H92.6704L88.7224 21.756H92.5624L95.4664 33.372H94.8904L97.6984 21.756H101.55ZM104.263 29.244V26.784H112.711L112.351 27.408C112.351 27.344 112.351 27.284 112.351 27.228C112.351 27.164 112.351 27.104 112.351 27.048C112.351 26.592 112.243 26.156 112.027 25.74C111.811 25.316 111.475 24.972 111.019 24.708C110.571 24.436 109.995 24.3 109.291 24.3C108.587 24.3 107.979 24.452 107.467 24.756C106.963 25.052 106.575 25.48 106.303 26.04C106.039 26.6 105.907 27.276 105.907 28.068C105.907 28.884 106.035 29.584 106.291 30.168C106.555 30.744 106.943 31.188 107.455 31.5C107.975 31.812 108.619 31.968 109.387 31.968C109.883 31.968 110.311 31.924 110.671 31.836C111.031 31.74 111.323 31.62 111.547 31.476C111.779 31.332 111.955 31.172 112.075 30.996C112.195 30.82 112.267 30.648 112.291 30.48H115.963C115.915 31.016 115.731 31.544 115.411 32.064C115.091 32.576 114.647 33.04 114.079 33.456C113.511 33.864 112.819 34.188 112.003 34.428C111.195 34.668 110.271 34.788 109.231 34.788C107.823 34.788 106.595 34.508 105.547 33.948C104.499 33.38 103.687 32.6 103.111 31.608C102.535 30.608 102.247 29.456 102.247 28.152C102.247 26.832 102.539 25.676 103.123 24.684C103.715 23.684 104.535 22.908 105.583 22.356C106.639 21.796 107.859 21.516 109.243 21.516C110.659 21.516 111.883 21.8 112.915 22.368C113.947 22.928 114.743 23.716 115.303 24.732C115.863 25.74 116.143 26.916 116.143 28.26C116.143 28.46 116.139 28.652 116.131 28.836C116.123 29.02 116.111 29.156 116.095 29.244H104.263ZM123.772 34.788C123.012 34.788 122.28 34.7 121.576 34.524C120.872 34.348 120.24 34.088 119.68 33.744C119.128 33.4 118.688 32.972 118.36 32.46C118.04 31.94 117.88 31.336 117.88 30.648C117.88 30.616 117.88 30.58 117.88 30.54C117.88 30.492 117.88 30.456 117.88 30.432H121.576C121.576 30.456 121.576 30.484 121.576 30.516C121.576 30.54 121.576 30.568 121.576 30.6C121.576 31.064 121.78 31.404 122.188 31.62C122.604 31.836 123.164 31.944 123.868 31.944C124.236 31.944 124.588 31.908 124.924 31.836C125.268 31.756 125.548 31.632 125.764 31.464C125.988 31.288 126.1 31.068 126.1 30.804C126.1 30.38 125.864 30.08 125.392 29.904C124.928 29.728 124.18 29.552 123.148 29.376C122.564 29.28 121.972 29.144 121.372 28.968C120.772 28.792 120.22 28.56 119.716 28.272C119.212 27.976 118.808 27.604 118.504 27.156C118.2 26.7 118.048 26.148 118.048 25.5C118.048 24.636 118.308 23.908 118.828 23.316C119.356 22.724 120.056 22.276 120.928 21.972C121.8 21.668 122.76 21.516 123.808 21.516C124.808 21.516 125.74 21.684 126.604 22.02C127.468 22.348 128.168 22.824 128.704 23.448C129.24 24.064 129.508 24.808 129.508 25.68C129.508 25.696 129.508 25.72 129.508 25.752C129.508 25.784 129.508 25.816 129.508 25.848H125.848C125.848 25.816 125.848 25.788 125.848 25.764C125.848 25.74 125.848 25.72 125.848 25.704C125.848 25.384 125.744 25.124 125.536 24.924C125.336 24.724 125.08 24.576 124.768 24.48C124.456 24.376 124.132 24.324 123.796 24.324C123.492 24.324 123.176 24.36 122.848 24.432C122.528 24.496 122.256 24.608 122.032 24.768C121.808 24.92 121.696 25.136 121.696 25.416C121.696 25.688 121.816 25.912 122.056 26.088C122.296 26.256 122.632 26.396 123.064 26.508C123.496 26.612 123.996 26.712 124.564 26.808C125.1 26.896 125.664 27.02 126.256 27.18C126.856 27.332 127.416 27.552 127.936 27.84C128.464 28.12 128.888 28.492 129.208 28.956C129.536 29.412 129.7 29.992 129.7 30.696C129.7 31.424 129.532 32.048 129.196 32.568C128.86 33.088 128.404 33.512 127.828 33.84C127.26 34.16 126.624 34.396 125.92 34.548C125.224 34.708 124.508 34.788 123.772 34.788ZM138.185 34.764C137.697 34.764 137.193 34.72 136.673 34.632C136.161 34.552 135.681 34.388 135.233 34.14C134.793 33.884 134.437 33.512 134.165 33.024C133.893 32.536 133.757 31.892 133.757 31.092C133.757 30.916 133.757 30.736 133.757 30.552C133.757 30.368 133.757 30.184 133.757 30V24.636H130.817V21.756H131.645C132.125 21.756 132.505 21.736 132.785 21.696C133.073 21.656 133.285 21.556 133.421 21.396C133.565 21.228 133.657 20.968 133.697 20.616C133.737 20.264 133.757 19.78 133.757 19.164V17.556H137.489V21.756H141.197V24.636H137.489V29.22C137.489 29.364 137.489 29.504 137.489 29.64C137.489 29.776 137.489 29.908 137.489 30.036C137.489 30.588 137.553 31.036 137.681 31.38C137.817 31.724 138.149 31.896 138.677 31.896C138.941 31.896 139.189 31.872 139.421 31.824C139.661 31.776 139.841 31.728 139.961 31.68V34.476C139.793 34.548 139.557 34.612 139.253 34.668C138.949 34.732 138.593 34.764 138.185 34.764ZM145.528 19.68L147.208 17.904V25.236L146.368 24.18H152.896V27.06H146.368L147.208 26.004V33.396L145.528 31.62H154.228V34.5H143.464V16.8H154.228V19.68H145.528ZM160.908 27.48L160.872 29.148L155.58 21.756H159.624L163.428 27.42L161.196 27.396L164.976 21.756H168.948L163.872 28.68L163.692 26.988L168.996 34.5H164.928L161.04 28.812L163.56 28.692L159.336 34.5H155.364L160.908 27.48ZM170.78 39.744V21.756H174.512V39.744H170.78ZM178.448 34.788C177.44 34.788 176.516 34.52 175.676 33.984C174.836 33.44 174.164 32.712 173.66 31.8C173.156 30.88 172.904 29.848 172.904 28.704C172.904 28.672 172.904 28.644 172.904 28.62C172.904 28.588 172.904 28.552 172.904 28.512L174.512 28.476C174.512 28.5 174.512 28.524 174.512 28.548C174.512 28.572 174.512 28.596 174.512 28.62C174.512 29.212 174.656 29.732 174.944 30.18C175.232 30.62 175.604 30.96 176.06 31.2C176.516 31.44 176.992 31.56 177.488 31.56C178.304 31.56 179.012 31.28 179.612 30.72C180.22 30.152 180.524 29.268 180.524 28.068C180.524 26.868 180.224 25.996 179.624 25.452C179.024 24.9 178.312 24.624 177.488 24.624C176.992 24.624 176.516 24.744 176.06 24.984C175.604 25.216 175.232 25.548 174.944 25.98C174.656 26.412 174.512 26.928 174.512 27.528L172.904 27.432C172.904 26.28 173.156 25.264 173.66 24.384C174.164 23.496 174.836 22.796 175.676 22.284C176.516 21.772 177.44 21.516 178.448 21.516C179.48 21.516 180.444 21.772 181.34 22.284C182.236 22.788 182.96 23.528 183.512 24.504C184.072 25.48 184.352 26.668 184.352 28.068C184.352 29.532 184.08 30.764 183.536 31.764C182.992 32.764 182.272 33.52 181.376 34.032C180.48 34.536 179.504 34.788 178.448 34.788ZM186.671 34.5V21.756H190.403V26.148L189.635 25.668C189.723 25.068 189.883 24.516 190.115 24.012C190.347 23.508 190.647 23.072 191.015 22.704C191.383 22.328 191.819 22.036 192.323 21.828C192.835 21.62 193.419 21.516 194.075 21.516C194.587 21.516 194.987 21.556 195.275 21.636C195.571 21.708 195.755 21.764 195.827 21.804L195.215 25.14C195.143 25.1 194.983 25.036 194.735 24.948C194.487 24.86 194.167 24.816 193.775 24.816C193.135 24.816 192.599 24.924 192.167 25.14C191.735 25.356 191.387 25.644 191.123 26.004C190.867 26.356 190.683 26.748 190.571 27.18C190.459 27.612 190.403 28.048 190.403 28.488V34.5H186.671ZM198.903 29.244V26.784H207.351L206.991 27.408C206.991 27.344 206.991 27.284 206.991 27.228C206.991 27.164 206.991 27.104 206.991 27.048C206.991 26.592 206.883 26.156 206.667 25.74C206.451 25.316 206.115 24.972 205.659 24.708C205.211 24.436 204.635 24.3 203.931 24.3C203.227 24.3 202.619 24.452 202.107 24.756C201.603 25.052 201.215 25.48 200.943 26.04C200.679 26.6 200.547 27.276 200.547 28.068C200.547 28.884 200.675 29.584 200.931 30.168C201.195 30.744 201.583 31.188 202.095 31.5C202.615 31.812 203.259 31.968 204.027 31.968C204.523 31.968 204.951 31.924 205.311 31.836C205.671 31.74 205.963 31.62 206.187 31.476C206.419 31.332 206.595 31.172 206.715 30.996C206.835 30.82 206.907 30.648 206.931 30.48H210.603C210.555 31.016 210.371 31.544 210.051 32.064C209.731 32.576 209.287 33.04 208.719 33.456C208.151 33.864 207.459 34.188 206.643 34.428C205.835 34.668 204.911 34.788 203.871 34.788C202.463 34.788 201.235 34.508 200.187 33.948C199.139 33.38 198.327 32.6 197.751 31.608C197.175 30.608 196.887 29.456 196.887 28.152C196.887 26.832 197.179 25.676 197.763 24.684C198.355 23.684 199.175 22.908 200.223 22.356C201.279 21.796 202.499 21.516 203.883 21.516C205.299 21.516 206.523 21.8 207.555 22.368C208.587 22.928 209.383 23.716 209.943 24.732C210.503 25.74 210.783 26.916 210.783 28.26C210.783 28.46 210.779 28.652 210.771 28.836C210.763 29.02 210.751 29.156 210.735 29.244H198.903ZM218.412 34.788C217.652 34.788 216.92 34.7 216.216 34.524C215.512 34.348 214.88 34.088 214.32 33.744C213.768 33.4 213.328 32.972 213 32.46C212.68 31.94 212.52 31.336 212.52 30.648C212.52 30.616 212.52 30.58 212.52 30.54C212.52 30.492 212.52 30.456 212.52 30.432H216.216C216.216 30.456 216.216 30.484 216.216 30.516C216.216 30.54 216.216 30.568 216.216 30.6C216.216 31.064 216.42 31.404 216.828 31.62C217.244 31.836 217.804 31.944 218.508 31.944C218.876 31.944 219.228 31.908 219.564 31.836C219.908 31.756 220.188 31.632 220.404 31.464C220.628 31.288 220.74 31.068 220.74 30.804C220.74 30.38 220.504 30.08 220.032 29.904C219.568 29.728 218.82 29.552 217.788 29.376C217.204 29.28 216.612 29.144 216.012 28.968C215.412 28.792 214.86 28.56 214.356 28.272C213.852 27.976 213.448 27.604 213.144 27.156C212.84 26.7 212.688 26.148 212.688 25.5C212.688 24.636 212.948 23.908 213.468 23.316C213.996 22.724 214.696 22.276 215.568 21.972C216.44 21.668 217.4 21.516 218.448 21.516C219.448 21.516 220.38 21.684 221.244 22.02C222.108 22.348 222.808 22.824 223.344 23.448C223.88 24.064 224.148 24.808 224.148 25.68C224.148 25.696 224.148 25.72 224.148 25.752C224.148 25.784 224.148 25.816 224.148 25.848H220.488C220.488 25.816 220.488 25.788 220.488 25.764C220.488 25.74 220.488 25.72 220.488 25.704C220.488 25.384 220.384 25.124 220.176 24.924C219.976 24.724 219.72 24.576 219.408 24.48C219.096 24.376 218.772 24.324 218.436 24.324C218.132 24.324 217.816 24.36 217.488 24.432C217.168 24.496 216.896 24.608 216.672 24.768C216.448 24.92 216.336 25.136 216.336 25.416C216.336 25.688 216.456 25.912 216.696 26.088C216.936 26.256 217.272 26.396 217.704 26.508C218.136 26.612 218.636 26.712 219.204 26.808C219.74 26.896 220.304 27.02 220.896 27.18C221.496 27.332 222.056 27.552 222.576 27.84C223.104 28.12 223.528 28.492 223.848 28.956C224.176 29.412 224.34 29.992 224.34 30.696C224.34 31.424 224.172 32.048 223.836 32.568C223.5 33.088 223.044 33.512 222.468 33.84C221.9 34.16 221.264 34.396 220.56 34.548C219.864 34.708 219.148 34.788 218.412 34.788ZM231.959 34.788C231.199 34.788 230.467 34.7 229.763 34.524C229.059 34.348 228.427 34.088 227.867 33.744C227.315 33.4 226.875 32.972 226.547 32.46C226.227 31.94 226.067 31.336 226.067 30.648C226.067 30.616 226.067 30.58 226.067 30.54C226.067 30.492 226.067 30.456 226.067 30.432H229.763C229.763 30.456 229.763 30.484 229.763 30.516C229.763 30.54 229.763 30.568 229.763 30.6C229.763 31.064 229.967 31.404 230.375 31.62C230.791 31.836 231.351 31.944 232.055 31.944C232.423 31.944 232.775 31.908 233.111 31.836C233.455 31.756 233.735 31.632 233.951 31.464C234.175 31.288 234.287 31.068 234.287 30.804C234.287 30.38 234.051 30.08 233.579 29.904C233.115 29.728 232.367 29.552 231.335 29.376C230.751 29.28 230.159 29.144 229.559 28.968C228.959 28.792 228.407 28.56 227.903 28.272C227.399 27.976 226.995 27.604 226.691 27.156C226.387 26.7 226.235 26.148 226.235 25.5C226.235 24.636 226.495 23.908 227.015 23.316C227.543 22.724 228.243 22.276 229.115 21.972C229.987 21.668 230.947 21.516 231.995 21.516C232.995 21.516 233.927 21.684 234.791 22.02C235.655 22.348 236.355 22.824 236.891 23.448C237.427 24.064 237.695 24.808 237.695 25.68C237.695 25.696 237.695 25.72 237.695 25.752C237.695 25.784 237.695 25.816 237.695 25.848H234.035C234.035 25.816 234.035 25.788 234.035 25.764C234.035 25.74 234.035 25.72 234.035 25.704C234.035 25.384 233.931 25.124 233.723 24.924C233.523 24.724 233.267 24.576 232.955 24.48C232.643 24.376 232.319 24.324 231.983 24.324C231.679 24.324 231.363 24.36 231.035 24.432C230.715 24.496 230.443 24.608 230.219 24.768C229.995 24.92 229.883 25.136 229.883 25.416C229.883 25.688 230.003 25.912 230.243 26.088C230.483 26.256 230.819 26.396 231.251 26.508C231.683 26.612 232.183 26.712 232.751 26.808C233.287 26.896 233.851 27.02 234.443 27.18C235.043 27.332 235.603 27.552 236.123 27.84C236.651 28.12 237.075 28.492 237.395 28.956C237.723 29.412 237.887 29.992 237.887 30.696C237.887 31.424 237.719 32.048 237.383 32.568C237.047 33.088 236.591 33.512 236.015 33.84C235.447 34.16 234.811 34.396 234.107 34.548C233.411 34.708 232.695 34.788 231.959 34.788Z" fill="#074C83"/>
</svg>
