<svg width="20" height="14" viewBox="0 0 20 14" fill="none" xmlns="http://www.w3.org/2000/svg">
<path id="Vector" d="M11.9422 13.6233C11.6854 13.3722 11.5621 13.0688 11.5724 12.713C11.5835 12.3572 11.7175 12.0538 11.9743 11.8027L15.6019 8.2556H1.28411C0.920278 8.2556 0.615088 8.13507 0.36854 7.89399C0.122847 7.65375 0 7.35575 0 7C0 6.64424 0.122847 6.34583 0.36854 6.10475C0.615088 5.86451 0.920278 5.74439 1.28411 5.74439H15.6019L11.9422 2.16592C11.6854 1.9148 11.557 1.61638 11.557 1.27067C11.557 0.925799 11.6854 0.627802 11.9422 0.376681C12.199 0.12556 12.5042 0 12.8578 0C13.2105 0 13.5152 0.12556 13.7721 0.376681L19.6469 6.12108C19.7753 6.24664 19.8665 6.38266 19.9204 6.52915C19.9735 6.67563 20 6.83259 20 7C20 7.16741 19.9735 7.32436 19.9204 7.47085C19.8665 7.61734 19.7753 7.75336 19.6469 7.87892L13.74 13.6547C13.5045 13.8849 13.2105 14 12.8578 14C12.5042 14 12.199 13.8744 11.9422 13.6233Z" fill="#2196F3"/>
</svg>
